solid ASCII
  facet normal 2.842171e-15 -1.000000e+00 1.136868e-14
    outer loop
      vertex   -5.802465e+02 1.537272e+03 1.893979e+03
      vertex   -5.802465e+02 1.537272e+03 1.933979e+03
      vertex   -1.380247e+03 1.537272e+03 1.893979e+03
    endloop
  endfacet
  facet normal 3.126388e-15 -1.000000e+00 5.684342e-15
    outer loop
      vertex   -1.380247e+03 1.537272e+03 1.893979e+03
      vertex   -5.802465e+02 1.537272e+03 1.933979e+03
      vertex   -1.380247e+03 1.537272e+03 1.933979e+03
    endloop
  endfacet
  facet normal -1.989520e-15 -1.705303e-14 -1.000000e+00
    outer loop
      vertex   -5.802465e+02 1.577272e+03 1.893979e+03
      vertex   -5.802465e+02 1.537272e+03 1.893979e+03
      vertex   -1.380247e+03 1.577272e+03 1.893979e+03
    endloop
  endfacet
  facet normal -1.421085e-15 -5.684342e-15 -1.000000e+00
    outer loop
      vertex   -1.380247e+03 1.577272e+03 1.893979e+03
      vertex   -5.802465e+02 1.537272e+03 1.893979e+03
      vertex   -1.380247e+03 1.537272e+03 1.893979e+03
    endloop
  endfacet
  facet normal -3.126388e-15 1.000000e+00 -1.136868e-14
    outer loop
      vertex   -5.802465e+02 1.577272e+03 1.933979e+03
      vertex   -5.802465e+02 1.577272e+03 1.893979e+03
      vertex   -1.380247e+03 1.577272e+03 1.933979e+03
    endloop
  endfacet
  facet normal -2.842171e-15 1.000000e+00 -5.684342e-15
    outer loop
      vertex   -1.380247e+03 1.577272e+03 1.933979e+03
      vertex   -5.802465e+02 1.577272e+03 1.893979e+03
      vertex   -1.380247e+03 1.577272e+03 1.893979e+03
    endloop
  endfacet
  facet normal 1.421085e-15 1.705303e-14 1.000000e+00
    outer loop
      vertex   -5.802465e+02 1.537272e+03 1.933979e+03
      vertex   -5.802465e+02 1.577272e+03 1.933979e+03
      vertex   -1.380247e+03 1.537272e+03 1.933979e+03
    endloop
  endfacet
  facet normal 1.989520e-15 5.684342e-15 1.000000e+00
    outer loop
      vertex   -1.380247e+03 1.537272e+03 1.933979e+03
      vertex   -5.802465e+02 1.577272e+03 1.933979e+03
      vertex   -1.380247e+03 1.577272e+03 1.933979e+03
    endloop
  endfacet
  facet normal -1.000000e+00 -0.000000e+00 0.000000e+00
    outer loop
      vertex   -1.380247e+03 1.577272e+03 1.933979e+03
      vertex   -1.380247e+03 1.577272e+03 1.893979e+03
      vertex   -1.380247e+03 1.537272e+03 1.933979e+03
    endloop
  endfacet
  facet normal -1.000000e+00 0.000000e+00 -0.000000e+00
    outer loop
      vertex   -1.380247e+03 1.537272e+03 1.933979e+03
      vertex   -1.380247e+03 1.577272e+03 1.893979e+03
      vertex   -1.380247e+03 1.537272e+03 1.893979e+03
    endloop
  endfacet
  facet normal 1.000000e+00 2.842171e-15 -2.842171e-15
    outer loop
      vertex   -5.802465e+02 1.537272e+03 1.933979e+03
      vertex   -5.802465e+02 1.537272e+03 1.893979e+03
      vertex   -5.802465e+02 1.577272e+03 1.933979e+03
    endloop
  endfacet
  facet normal 1.000000e+00 2.842171e-15 -2.842171e-15
    outer loop
      vertex   -5.802465e+02 1.577272e+03 1.933979e+03
      vertex   -5.802465e+02 1.537272e+03 1.893979e+03
      vertex   -5.802465e+02 1.577272e+03 1.893979e+03
    endloop
  endfacet
  facet normal 1.000000e+00 -1.749028e-16 9.942075e-31
    outer loop
      vertex   -1.380247e+03 1.077272e+03 6.539791e+02
      vertex   -1.380247e+03 2.377272e+03 6.539791e+02
      vertex   -1.380247e+03 1.077272e+03 6.939791e+02
    endloop
  endfacet
  facet normal 1.000000e+00 -1.749028e-16 0.000000e+00
    outer loop
      vertex   -1.380247e+03 1.077272e+03 6.939791e+02
      vertex   -1.380247e+03 2.377272e+03 6.539791e+02
      vertex   -1.380247e+03 2.377272e+03 6.939791e+02
    endloop
  endfacet
  facet normal 0.000000e+00 6.733759e-15 1.000000e+00
    outer loop
      vertex   -1.380247e+03 1.077272e+03 6.939791e+02
      vertex   -1.380247e+03 2.377272e+03 6.939791e+02
      vertex   -1.420247e+03 1.077272e+03 6.939791e+02
    endloop
  endfacet
  facet normal 2.842171e-15 6.646307e-15 1.000000e+00
    outer loop
      vertex   -1.420247e+03 1.077272e+03 6.939791e+02
      vertex   -1.380247e+03 2.377272e+03 6.939791e+02
      vertex   -1.420247e+03 2.377272e+03 6.939791e+02
    endloop
  endfacet
  facet normal -1.000000e+00 1.749028e-16 -9.942075e-31
    outer loop
      vertex   -1.420247e+03 1.077272e+03 6.939791e+02
      vertex   -1.420247e+03 2.377272e+03 6.939791e+02
      vertex   -1.420247e+03 1.077272e+03 6.539791e+02
    endloop
  endfacet
  facet normal -1.000000e+00 1.749028e-16 0.000000e+00
    outer loop
      vertex   -1.420247e+03 1.077272e+03 6.539791e+02
      vertex   -1.420247e+03 2.377272e+03 6.939791e+02
      vertex   -1.420247e+03 2.377272e+03 6.539791e+02
    endloop
  endfacet
  facet normal 0.000000e+00 -6.733759e-15 -1.000000e+00
    outer loop
      vertex   -1.420247e+03 1.077272e+03 6.539791e+02
      vertex   -1.420247e+03 2.377272e+03 6.539791e+02
      vertex   -1.380247e+03 1.077272e+03 6.539791e+02
    endloop
  endfacet
  facet normal 0.000000e+00 -6.733759e-15 -1.000000e+00
    outer loop
      vertex   -1.380247e+03 1.077272e+03 6.539791e+02
      vertex   -1.420247e+03 2.377272e+03 6.539791e+02
      vertex   -1.380247e+03 2.377272e+03 6.539791e+02
    endloop
  endfacet
  facet normal 0.000000e+00 1.000000e+00 0.000000e+00
    outer loop
      vertex   -1.420247e+03 2.377272e+03 6.539791e+02
      vertex   -1.420247e+03 2.377272e+03 6.939791e+02
      vertex   -1.380247e+03 2.377272e+03 6.539791e+02
    endloop
  endfacet
  facet normal 0.000000e+00 1.000000e+00 -0.000000e+00
    outer loop
      vertex   -1.380247e+03 2.377272e+03 6.539791e+02
      vertex   -1.420247e+03 2.377272e+03 6.939791e+02
      vertex   -1.380247e+03 2.377272e+03 6.939791e+02
    endloop
  endfacet
  facet normal 0.000000e+00 -1.000000e+00 5.684342e-15
    outer loop
      vertex   -1.380247e+03 1.077272e+03 6.539791e+02
      vertex   -1.380247e+03 1.077272e+03 6.939791e+02
      vertex   -1.420247e+03 1.077272e+03 6.539791e+02
    endloop
  endfacet
  facet normal 0.000000e+00 -1.000000e+00 5.684342e-15
    outer loop
      vertex   -1.420247e+03 1.077272e+03 6.539791e+02
      vertex   -1.380247e+03 1.077272e+03 6.939791e+02
      vertex   -1.420247e+03 1.077272e+03 6.939791e+02
    endloop
  endfacet
  facet normal -1.000000e+00 1.091394e-13 2.273737e-15
    outer loop
      vertex   -1.130247e+03 2.377272e+03 1.443979e+03
      vertex   -1.130247e+03 2.377272e+03 1.143979e+03
      vertex   -1.130247e+03 2.177272e+03 1.443979e+03
    endloop
  endfacet
  facet normal -1.000000e+00 1.091394e-13 2.273737e-15
    outer loop
      vertex   -1.130247e+03 2.177272e+03 1.443979e+03
      vertex   -1.130247e+03 2.377272e+03 1.143979e+03
      vertex   -1.130247e+03 2.177272e+03 1.143979e+03
    endloop
  endfacet
  facet normal 1.515825e-15 9.094947e-15 1.000000e+00
    outer loop
      vertex   -8.302465e+02 2.377272e+03 1.443979e+03
      vertex   -1.130247e+03 2.377272e+03 1.443979e+03
      vertex   -8.302465e+02 2.177272e+03 1.443979e+03
    endloop
  endfacet
  facet normal 2.273737e-15 1.023182e-14 1.000000e+00
    outer loop
      vertex   -8.302465e+02 2.177272e+03 1.443979e+03
      vertex   -1.130247e+03 2.377272e+03 1.443979e+03
      vertex   -1.130247e+03 2.177272e+03 1.443979e+03
    endloop
  endfacet
  facet normal 1.000000e+00 -1.085709e-13 -2.652693e-15
    outer loop
      vertex   -8.302465e+02 2.377272e+03 1.143979e+03
      vertex   -8.302465e+02 2.377272e+03 1.443979e+03
      vertex   -8.302465e+02 2.177272e+03 1.143979e+03
    endloop
  endfacet
  facet normal 1.000000e+00 -1.091394e-13 -2.273737e-15
    outer loop
      vertex   -8.302465e+02 2.177272e+03 1.143979e+03
      vertex   -8.302465e+02 2.377272e+03 1.443979e+03
      vertex   -8.302465e+02 2.177272e+03 1.443979e+03
    endloop
  endfacet
  facet normal -3.031649e-15 -9.094947e-15 -1.000000e+00
    outer loop
      vertex   -1.130247e+03 2.377272e+03 1.143979e+03
      vertex   -8.302465e+02 2.377272e+03 1.143979e+03
      vertex   -1.130247e+03 2.177272e+03 1.143979e+03
    endloop
  endfacet
  facet normal -2.273737e-15 -1.023182e-14 -1.000000e+00
    outer loop
      vertex   -1.130247e+03 2.177272e+03 1.143979e+03
      vertex   -8.302465e+02 2.377272e+03 1.143979e+03
      vertex   -8.302465e+02 2.177272e+03 1.143979e+03
    endloop
  endfacet
  facet normal -1.091394e-13 -1.000000e+00 9.094947e-15
    outer loop
      vertex   -8.302465e+02 2.177272e+03 1.143979e+03
      vertex   -8.302465e+02 2.177272e+03 1.443979e+03
      vertex   -1.130247e+03 2.177272e+03 1.143979e+03
    endloop
  endfacet
  facet normal -1.091394e-13 -1.000000e+00 9.094947e-15
    outer loop
      vertex   -1.130247e+03 2.177272e+03 1.143979e+03
      vertex   -8.302465e+02 2.177272e+03 1.443979e+03
      vertex   -1.130247e+03 2.177272e+03 1.443979e+03
    endloop
  endfacet
  facet normal 1.091394e-13 1.000000e+00 -9.094947e-15
    outer loop
      vertex   -1.130247e+03 2.377272e+03 1.143979e+03
      vertex   -1.130247e+03 2.377272e+03 1.443979e+03
      vertex   -8.302465e+02 2.377272e+03 1.143979e+03
    endloop
  endfacet
  facet normal 1.091394e-13 1.000000e+00 -9.094947e-15
    outer loop
      vertex   -8.302465e+02 2.377272e+03 1.143979e+03
      vertex   -1.130247e+03 2.377272e+03 1.443979e+03
      vertex   -8.302465e+02 2.377272e+03 1.443979e+03
    endloop
  endfacet
  facet normal -1.000000e+00 -2.273737e-15 1.364242e-15
    outer loop
      vertex   -1.020247e+03 1.502272e+03 1.893979e+03
      vertex   -1.020247e+03 1.702272e+03 1.893979e+03
      vertex   -1.020247e+03 1.502272e+03 1.643979e+03
    endloop
  endfacet
  facet normal -1.000000e+00 -3.979039e-15 2.728484e-15
    outer loop
      vertex   -1.020247e+03 1.502272e+03 1.643979e+03
      vertex   -1.020247e+03 1.702272e+03 1.893979e+03
      vertex   -1.020247e+03 1.702272e+03 1.643979e+03
    endloop
  endfacet
  facet normal 2.273737e-15 -1.000000e+00 8.185452e-15
    outer loop
      vertex   -8.202465e+02 1.502272e+03 1.893979e+03
      vertex   -1.020247e+03 1.502272e+03 1.893979e+03
      vertex   -8.202465e+02 1.502272e+03 1.643979e+03
    endloop
  endfacet
  facet normal 3.410605e-15 -1.000000e+00 9.094947e-15
    outer loop
      vertex   -8.202465e+02 1.502272e+03 1.643979e+03
      vertex   -1.020247e+03 1.502272e+03 1.893979e+03
      vertex   -1.020247e+03 1.502272e+03 1.643979e+03
    endloop
  endfacet
  facet normal 1.000000e+00 2.273737e-15 -2.728484e-15
    outer loop
      vertex   -8.202465e+02 1.702272e+03 1.893979e+03
      vertex   -8.202465e+02 1.502272e+03 1.893979e+03
      vertex   -8.202465e+02 1.702272e+03 1.643979e+03
    endloop
  endfacet
  facet normal 1.000000e+00 3.979039e-15 -1.364242e-15
    outer loop
      vertex   -8.202465e+02 1.702272e+03 1.643979e+03
      vertex   -8.202465e+02 1.502272e+03 1.893979e+03
      vertex   -8.202465e+02 1.502272e+03 1.643979e+03
    endloop
  endfacet
  facet normal -2.273737e-15 1.000000e+00 -9.094947e-15
    outer loop
      vertex   -1.020247e+03 1.702272e+03 1.893979e+03
      vertex   -8.202465e+02 1.702272e+03 1.893979e+03
      vertex   -1.020247e+03 1.702272e+03 1.643979e+03
    endloop
  endfacet
  facet normal -3.410605e-15 1.000000e+00 -8.185452e-15
    outer loop
      vertex   -1.020247e+03 1.702272e+03 1.643979e+03
      vertex   -8.202465e+02 1.702272e+03 1.893979e+03
      vertex   -8.202465e+02 1.702272e+03 1.643979e+03
    endloop
  endfacet
  facet normal -1.136868e-15 -1.023182e-14 -1.000000e+00
    outer loop
      vertex   -8.202465e+02 1.702272e+03 1.643979e+03
      vertex   -8.202465e+02 1.502272e+03 1.643979e+03
      vertex   -1.020247e+03 1.702272e+03 1.643979e+03
    endloop
  endfacet
  facet normal -1.136868e-15 -1.023182e-14 -1.000000e+00
    outer loop
      vertex   -1.020247e+03 1.702272e+03 1.643979e+03
      vertex   -8.202465e+02 1.502272e+03 1.643979e+03
      vertex   -1.020247e+03 1.502272e+03 1.643979e+03
    endloop
  endfacet
  facet normal 3.410605e-15 7.958079e-15 1.000000e+00
    outer loop
      vertex   -1.020247e+03 1.702272e+03 1.893979e+03
      vertex   -1.020247e+03 1.502272e+03 1.893979e+03
      vertex   -8.202465e+02 1.702272e+03 1.893979e+03
    endloop
  endfacet
  facet normal 2.273737e-15 9.094947e-15 1.000000e+00
    outer loop
      vertex   -8.202465e+02 1.702272e+03 1.893979e+03
      vertex   -1.020247e+03 1.502272e+03 1.893979e+03
      vertex   -8.202465e+02 1.502272e+03 1.893979e+03
    endloop
  endfacet
  facet normal 1.000000e+00 -1.486674e-15 8.450763e-30
    outer loop
      vertex   -5.402465e+02 1.077272e+03 6.539791e+02
      vertex   -5.402465e+02 2.377272e+03 6.539791e+02
      vertex   -5.402465e+02 1.077272e+03 6.939791e+02
    endloop
  endfacet
  facet normal 1.000000e+00 -1.574125e-15 -2.842171e-15
    outer loop
      vertex   -5.402465e+02 1.077272e+03 6.939791e+02
      vertex   -5.402465e+02 2.377272e+03 6.539791e+02
      vertex   -5.402465e+02 2.377272e+03 6.939791e+02
    endloop
  endfacet
  facet normal 0.000000e+00 5.509439e-15 1.000000e+00
    outer loop
      vertex   -5.402465e+02 1.077272e+03 6.939791e+02
      vertex   -5.402465e+02 2.377272e+03 6.939791e+02
      vertex   -5.802465e+02 1.077272e+03 6.939791e+02
    endloop
  endfacet
  facet normal 2.842171e-15 5.421988e-15 1.000000e+00
    outer loop
      vertex   -5.802465e+02 1.077272e+03 6.939791e+02
      vertex   -5.402465e+02 2.377272e+03 6.939791e+02
      vertex   -5.802465e+02 2.377272e+03 6.939791e+02
    endloop
  endfacet
  facet normal -1.000000e+00 1.574125e-15 -8.947867e-30
    outer loop
      vertex   -5.802465e+02 1.077272e+03 6.939791e+02
      vertex   -5.802465e+02 2.377272e+03 6.939791e+02
      vertex   -5.802465e+02 1.077272e+03 6.539791e+02
    endloop
  endfacet
  facet normal -1.000000e+00 1.486674e-15 2.842171e-15
    outer loop
      vertex   -5.802465e+02 1.077272e+03 6.539791e+02
      vertex   -5.802465e+02 2.377272e+03 6.939791e+02
      vertex   -5.802465e+02 2.377272e+03 6.539791e+02
    endloop
  endfacet
  facet normal 0.000000e+00 -5.509439e-15 -1.000000e+00
    outer loop
      vertex   -5.802465e+02 1.077272e+03 6.539791e+02
      vertex   -5.802465e+02 2.377272e+03 6.539791e+02
      vertex   -5.402465e+02 1.077272e+03 6.539791e+02
    endloop
  endfacet
  facet normal 0.000000e+00 -5.509439e-15 -1.000000e+00
    outer loop
      vertex   -5.402465e+02 1.077272e+03 6.539791e+02
      vertex   -5.802465e+02 2.377272e+03 6.539791e+02
      vertex   -5.402465e+02 2.377272e+03 6.539791e+02
    endloop
  endfacet
  facet normal 0.000000e+00 1.000000e+00 0.000000e+00
    outer loop
      vertex   -5.802465e+02 2.377272e+03 6.539791e+02
      vertex   -5.802465e+02 2.377272e+03 6.939791e+02
      vertex   -5.402465e+02 2.377272e+03 6.539791e+02
    endloop
  endfacet
  facet normal 0.000000e+00 1.000000e+00 -0.000000e+00
    outer loop
      vertex   -5.402465e+02 2.377272e+03 6.539791e+02
      vertex   -5.802465e+02 2.377272e+03 6.939791e+02
      vertex   -5.402465e+02 2.377272e+03 6.939791e+02
    endloop
  endfacet
  facet normal 0.000000e+00 -1.000000e+00 5.684342e-15
    outer loop
      vertex   -5.402465e+02 1.077272e+03 6.539791e+02
      vertex   -5.402465e+02 1.077272e+03 6.939791e+02
      vertex   -5.802465e+02 1.077272e+03 6.539791e+02
    endloop
  endfacet
  facet normal 0.000000e+00 -1.000000e+00 5.684342e-15
    outer loop
      vertex   -5.802465e+02 1.077272e+03 6.539791e+02
      vertex   -5.402465e+02 1.077272e+03 6.939791e+02
      vertex   -5.802465e+02 1.077272e+03 6.939791e+02
    endloop
  endfacet
  facet normal -1.000000e+00 5.395752e-14 -6.134260e-28
    outer loop
      vertex   -5.802465e+02 2.377272e+03 1.893979e+03
      vertex   -5.802465e+02 1.077272e+03 1.893979e+03
      vertex   -5.802465e+02 2.377272e+03 1.933979e+03
    endloop
  endfacet
  facet normal -1.000000e+00 5.395752e-14 0.000000e+00
    outer loop
      vertex   -5.802465e+02 2.377272e+03 1.933979e+03
      vertex   -5.802465e+02 1.077272e+03 1.893979e+03
      vertex   -5.802465e+02 1.077272e+03 1.933979e+03
    endloop
  endfacet
  facet normal 3.280885e-28 5.771793e-15 1.000000e+00
    outer loop
      vertex   -5.802465e+02 2.377272e+03 1.933979e+03
      vertex   -5.802465e+02 1.077272e+03 1.933979e+03
      vertex   -5.402465e+02 2.377272e+03 1.933979e+03
    endloop
  endfacet
  facet normal 3.181464e-28 5.771793e-15 1.000000e+00
    outer loop
      vertex   -5.402465e+02 2.377272e+03 1.933979e+03
      vertex   -5.802465e+02 1.077272e+03 1.933979e+03
      vertex   -5.402465e+02 1.077272e+03 1.933979e+03
    endloop
  endfacet
  facet normal 1.000000e+00 -5.395752e-14 0.000000e+00
    outer loop
      vertex   -5.402465e+02 2.377272e+03 1.933979e+03
      vertex   -5.402465e+02 1.077272e+03 1.933979e+03
      vertex   -5.402465e+02 2.377272e+03 1.893979e+03
    endloop
  endfacet
  facet normal 1.000000e+00 -5.404497e-14 -2.842171e-15
    outer loop
      vertex   -5.402465e+02 2.377272e+03 1.893979e+03
      vertex   -5.402465e+02 1.077272e+03 1.933979e+03
      vertex   -5.402465e+02 1.077272e+03 1.893979e+03
    endloop
  endfacet
  facet normal -2.624708e-28 -5.771793e-15 -1.000000e+00
    outer loop
      vertex   -5.402465e+02 2.377272e+03 1.893979e+03
      vertex   -5.402465e+02 1.077272e+03 1.893979e+03
      vertex   -5.802465e+02 2.377272e+03 1.893979e+03
    endloop
  endfacet
  facet normal -3.181464e-28 -5.771793e-15 -1.000000e+00
    outer loop
      vertex   -5.802465e+02 2.377272e+03 1.893979e+03
      vertex   -5.402465e+02 1.077272e+03 1.893979e+03
      vertex   -5.802465e+02 1.077272e+03 1.893979e+03
    endloop
  endfacet
  facet normal -5.684342e-14 -1.000000e+00 1.615587e-28
    outer loop
      vertex   -5.402465e+02 1.077272e+03 1.893979e+03
      vertex   -5.402465e+02 1.077272e+03 1.933979e+03
      vertex   -5.802465e+02 1.077272e+03 1.893979e+03
    endloop
  endfacet
  facet normal -5.684342e-14 -1.000000e+00 0.000000e+00
    outer loop
      vertex   -5.802465e+02 1.077272e+03 1.893979e+03
      vertex   -5.402465e+02 1.077272e+03 1.933979e+03
      vertex   -5.802465e+02 1.077272e+03 1.933979e+03
    endloop
  endfacet
  facet normal 4.547474e-14 1.000000e+00 -1.136868e-14
    outer loop
      vertex   -5.802465e+02 2.377272e+03 1.893979e+03
      vertex   -5.802465e+02 2.377272e+03 1.933979e+03
      vertex   -5.402465e+02 2.377272e+03 1.893979e+03
    endloop
  endfacet
  facet normal 5.684342e-14 1.000000e+00 -0.000000e+00
    outer loop
      vertex   -5.402465e+02 2.377272e+03 1.893979e+03
      vertex   -5.802465e+02 2.377272e+03 1.933979e+03
      vertex   -5.402465e+02 2.377272e+03 1.933979e+03
    endloop
  endfacet
  facet normal -1.000000e+00 -5.247085e-16 2.982622e-30
    outer loop
      vertex   -1.420247e+03 1.077272e+03 1.933979e+03
      vertex   -1.420247e+03 2.377272e+03 1.933979e+03
      vertex   -1.420247e+03 1.077272e+03 1.893979e+03
    endloop
  endfacet
  facet normal -1.000000e+00 -5.247085e-16 7.953660e-30
    outer loop
      vertex   -1.420247e+03 1.077272e+03 1.893979e+03
      vertex   -1.420247e+03 2.377272e+03 1.933979e+03
      vertex   -1.420247e+03 2.377272e+03 1.893979e+03
    endloop
  endfacet
  facet normal 0.000000e+00 -7.520822e-15 -1.000000e+00
    outer loop
      vertex   -1.420247e+03 1.077272e+03 1.893979e+03
      vertex   -1.420247e+03 2.377272e+03 1.893979e+03
      vertex   -1.380247e+03 1.077272e+03 1.893979e+03
    endloop
  endfacet
  facet normal 0.000000e+00 -7.520822e-15 -1.000000e+00
    outer loop
      vertex   -1.380247e+03 1.077272e+03 1.893979e+03
      vertex   -1.420247e+03 2.377272e+03 1.893979e+03
      vertex   -1.380247e+03 2.377272e+03 1.893979e+03
    endloop
  endfacet
  facet normal 1.000000e+00 5.247085e-16 -2.982622e-30
    outer loop
      vertex   -1.380247e+03 1.077272e+03 1.893979e+03
      vertex   -1.380247e+03 2.377272e+03 1.893979e+03
      vertex   -1.380247e+03 1.077272e+03 1.933979e+03
    endloop
  endfacet
  facet normal 1.000000e+00 5.247085e-16 -5.965245e-30
    outer loop
      vertex   -1.380247e+03 1.077272e+03 1.933979e+03
      vertex   -1.380247e+03 2.377272e+03 1.893979e+03
      vertex   -1.380247e+03 2.377272e+03 1.933979e+03
    endloop
  endfacet
  facet normal 0.000000e+00 7.520822e-15 1.000000e+00
    outer loop
      vertex   -1.380247e+03 1.077272e+03 1.933979e+03
      vertex   -1.380247e+03 2.377272e+03 1.933979e+03
      vertex   -1.420247e+03 1.077272e+03 1.933979e+03
    endloop
  endfacet
  facet normal 0.000000e+00 7.520822e-15 1.000000e+00
    outer loop
      vertex   -1.420247e+03 1.077272e+03 1.933979e+03
      vertex   -1.380247e+03 2.377272e+03 1.933979e+03
      vertex   -1.420247e+03 2.377272e+03 1.933979e+03
    endloop
  endfacet
  facet normal 0.000000e+00 1.000000e+00 -1.136868e-14
    outer loop
      vertex   -1.380247e+03 2.377272e+03 1.933979e+03
      vertex   -1.380247e+03 2.377272e+03 1.893979e+03
      vertex   -1.420247e+03 2.377272e+03 1.933979e+03
    endloop
  endfacet
  facet normal 0.000000e+00 1.000000e+00 -1.136868e-14
    outer loop
      vertex   -1.420247e+03 2.377272e+03 1.933979e+03
      vertex   -1.380247e+03 2.377272e+03 1.893979e+03
      vertex   -1.420247e+03 2.377272e+03 1.893979e+03
    endloop
  endfacet
  facet normal 0.000000e+00 -1.000000e+00 5.684342e-15
    outer loop
      vertex   -1.420247e+03 1.077272e+03 1.933979e+03
      vertex   -1.420247e+03 1.077272e+03 1.893979e+03
      vertex   -1.380247e+03 1.077272e+03 1.933979e+03
    endloop
  endfacet
  facet normal 0.000000e+00 -1.000000e+00 5.684342e-15
    outer loop
      vertex   -1.380247e+03 1.077272e+03 1.933979e+03
      vertex   -1.420247e+03 1.077272e+03 1.893979e+03
      vertex   -1.380247e+03 1.077272e+03 1.893979e+03
    endloop
  endfacet
  facet normal -1.000000e+00 5.456968e-14 1.421085e-15
    outer loop
      vertex   -1.420247e+03 2.377272e+03 6.539791e+02
      vertex   -1.420247e+03 2.377272e+03 1.933979e+03
      vertex   -1.420247e+03 2.427272e+03 6.539791e+02
    endloop
  endfacet
  facet normal -1.000000e+00 5.002221e-14 1.243450e-15
    outer loop
      vertex   -1.420247e+03 2.427272e+03 6.539791e+02
      vertex   -1.420247e+03 2.377272e+03 1.933979e+03
      vertex   -1.420247e+03 2.427272e+03 1.933979e+03
    endloop
  endfacet
  facet normal -1.033517e-15 -2.273737e-15 -1.000000e+00
    outer loop
      vertex   -5.402465e+02 2.377272e+03 6.539791e+02
      vertex   -1.420247e+03 2.377272e+03 6.539791e+02
      vertex   -5.402465e+02 2.427272e+03 6.539791e+02
    endloop
  endfacet
  facet normal -7.751375e-16 -6.821210e-15 -1.000000e+00
    outer loop
      vertex   -5.402465e+02 2.427272e+03 6.539791e+02
      vertex   -1.420247e+03 2.377272e+03 6.539791e+02
      vertex   -1.420247e+03 2.427272e+03 6.539791e+02
    endloop
  endfacet
  facet normal 1.000000e+00 -5.229595e-14 -9.769963e-16
    outer loop
      vertex   -5.402465e+02 2.377272e+03 1.933979e+03
      vertex   -5.402465e+02 2.377272e+03 6.539791e+02
      vertex   -5.402465e+02 2.427272e+03 1.933979e+03
    endloop
  endfacet
  facet normal 1.000000e+00 -5.456968e-14 -8.881784e-16
    outer loop
      vertex   -5.402465e+02 2.427272e+03 1.933979e+03
      vertex   -5.402465e+02 2.377272e+03 6.539791e+02
      vertex   -5.402465e+02 2.427272e+03 6.539791e+02
    endloop
  endfacet
  facet normal 7.751375e-16 9.094947e-15 1.000000e+00
    outer loop
      vertex   -1.420247e+03 2.377272e+03 1.933979e+03
      vertex   -5.402465e+02 2.377272e+03 1.933979e+03
      vertex   -1.420247e+03 2.427272e+03 1.933979e+03
    endloop
  endfacet
  facet normal 5.167584e-16 4.547474e-15 1.000000e+00
    outer loop
      vertex   -1.420247e+03 2.427272e+03 1.933979e+03
      vertex   -5.402465e+02 2.377272e+03 1.933979e+03
      vertex   -5.402465e+02 2.427272e+03 1.933979e+03
    endloop
  endfacet
  facet normal 5.374287e-14 1.000000e+00 -5.684342e-15
    outer loop
      vertex   -5.402465e+02 2.427272e+03 1.933979e+03
      vertex   -5.402465e+02 2.427272e+03 6.539791e+02
      vertex   -1.420247e+03 2.427272e+03 1.933979e+03
    endloop
  endfacet
  facet normal 5.374287e-14 1.000000e+00 -5.684342e-15
    outer loop
      vertex   -1.420247e+03 2.427272e+03 1.933979e+03
      vertex   -5.402465e+02 2.427272e+03 6.539791e+02
      vertex   -1.420247e+03 2.427272e+03 6.539791e+02
    endloop
  endfacet
  facet normal -5.374287e-14 -1.000000e+00 5.684342e-15
    outer loop
      vertex   -1.420247e+03 2.377272e+03 1.933979e+03
      vertex   -1.420247e+03 2.377272e+03 6.539791e+02
      vertex   -5.402465e+02 2.377272e+03 1.933979e+03
    endloop
  endfacet
  facet normal -5.374287e-14 -1.000000e+00 5.684342e-15
    outer loop
      vertex   -5.402465e+02 2.377272e+03 1.933979e+03
      vertex   -1.420247e+03 2.377272e+03 6.539791e+02
      vertex   -5.402465e+02 2.377272e+03 6.539791e+02
    endloop
  endfacet
endsolid
